# xmcd
#
# Track frame offsets: 
#        150
#        12666
#        25208
#        44006
#        54047
#        63168
#        80185
#        91376
#        107894
#        122352
#
# Disc length: 1834 seconds
#
# Revision: 1
# Processed by: cddbd v1.5.2PL0 Copyright (c) Steve Scherf et al.
# Submitted via: ExactAudioCopy v1.1
#
DISCID=7e07280a
DTITLE=Kenny Rogers - Country (Live)
DYEAR=2012
DGENRE=Country
TTITLE0=Islands in the Stream
TTITLE1=Daytime Friends
TTITLE2=She Believes in Me
TTITLE3=Ruby, Don't Take Your Love to Town
TTITLE4=Through the Years
TTITLE5=Lucille
TTITLE6=Coward of the Country
TTITLE7=Lady
TTITLE8=The Gambler
TTITLE9=We've Got Tonight (with Linda Davis)
EXTD=
EXTT0=
EXTT1=
EXTT2=
EXTT3=
EXTT4=
EXTT5=
EXTT6=
EXTT7=
EXTT8=
EXTT9=
PLAYORDER=
